<mxfile host="Electron" agent="Mozilla/5.0 (Windows NT 10.0; Win64; x64) AppleWebKit/537.36 (KHTML, like Gecko) draw.io/24.7.8 Chrome/128.0.6613.36 Electron/32.0.1 Safari/537.36" version="24.7.8">
  <diagram name="Page-1" id="SdFcA77bNx3NqzB9rI0u">
    <mxGraphModel dx="2216" dy="1904" grid="1" gridSize="10" guides="1" tooltips="1" connect="1" arrows="1" fold="1" page="1" pageScale="1" pageWidth="850" pageHeight="1100" background="#ffffff" math="0" shadow="0">
      <root>
        <mxCell id="0" />
        <mxCell id="1" parent="0" />
        <mxCell id="4u6GkYTsB3H_MvTD6gbW-3" value="" style="whiteSpace=wrap;html=1;aspect=fixed;fillColor=#FFFFFF;strokeColor=#000000;" vertex="1" parent="1">
          <mxGeometry x="440" y="200" width="80" height="80" as="geometry" />
        </mxCell>
        <mxCell id="4u6GkYTsB3H_MvTD6gbW-4" value="" style="endArrow=none;html=1;rounded=0;entryX=0;entryY=0.5;entryDx=0;entryDy=0;exitX=1;exitY=0.5;exitDx=0;exitDy=0;strokeColor=#000000;" edge="1" parent="1" source="4u6GkYTsB3H_MvTD6gbW-3" target="4u6GkYTsB3H_MvTD6gbW-3">
          <mxGeometry width="50" height="50" relative="1" as="geometry">
            <mxPoint x="480" y="300" as="sourcePoint" />
            <mxPoint x="530" y="250" as="targetPoint" />
          </mxGeometry>
        </mxCell>
        <mxCell id="4u6GkYTsB3H_MvTD6gbW-6" value="&lt;font style=&quot;font-size: 20px;&quot;&gt;EO&lt;/font&gt;" style="text;html=1;align=center;verticalAlign=middle;resizable=0;points=[];autosize=1;strokeColor=none;fillColor=none;fontColor=#000000;" vertex="1" parent="1">
          <mxGeometry x="455" y="200" width="50" height="40" as="geometry" />
        </mxCell>
        <mxCell id="4u6GkYTsB3H_MvTD6gbW-8" value="" style="verticalLabelPosition=bottom;align=center;html=1;verticalAlign=top;pointerEvents=1;dashed=0;shape=mxgraph.pid2valves.valve;valveType=gate;strokeColor=#000000;fillColor=#FFFFFF;" vertex="1" parent="1">
          <mxGeometry x="-190" y="330" width="100" height="60" as="geometry" />
        </mxCell>
        <mxCell id="4u6GkYTsB3H_MvTD6gbW-9" value="" style="verticalLabelPosition=bottom;align=center;html=1;verticalAlign=top;pointerEvents=1;dashed=0;shape=mxgraph.pid2valves.valve;valveType=gate;defState=closed;fillColor=#000000;strokeColor=#000000;" vertex="1" parent="1">
          <mxGeometry x="430" y="330" width="100" height="60" as="geometry" />
        </mxCell>
        <mxCell id="4u6GkYTsB3H_MvTD6gbW-10" value="" style="endArrow=none;html=1;rounded=0;strokeColor=#000000;exitX=0.5;exitY=1;exitDx=0;exitDy=0;strokeWidth=2;" edge="1" parent="1" source="4u6GkYTsB3H_MvTD6gbW-3">
          <mxGeometry width="50" height="50" relative="1" as="geometry">
            <mxPoint x="480" y="290" as="sourcePoint" />
            <mxPoint x="480" y="360" as="targetPoint" />
          </mxGeometry>
        </mxCell>
        <mxCell id="4u6GkYTsB3H_MvTD6gbW-11" value="" style="endArrow=none;dashed=1;html=1;strokeWidth=2;rounded=0;strokeColor=#000000;exitX=0.5;exitY=0;exitDx=0;exitDy=0;" edge="1" parent="1" source="4u6GkYTsB3H_MvTD6gbW-3">
          <mxGeometry width="50" height="50" relative="1" as="geometry">
            <mxPoint x="480" y="190" as="sourcePoint" />
            <mxPoint x="480" y="80" as="targetPoint" />
          </mxGeometry>
        </mxCell>
        <mxCell id="4u6GkYTsB3H_MvTD6gbW-12" value="" style="endArrow=none;html=1;rounded=0;strokeColor=#000000;strokeWidth=10;" edge="1" parent="1" target="4u6GkYTsB3H_MvTD6gbW-9">
          <mxGeometry width="50" height="50" relative="1" as="geometry">
            <mxPoint x="200" y="360" as="sourcePoint" />
            <mxPoint x="400" y="360" as="targetPoint" />
          </mxGeometry>
        </mxCell>
        <mxCell id="4u6GkYTsB3H_MvTD6gbW-13" value="" style="rounded=0;whiteSpace=wrap;html=1;strokeColor=#000000;fillColor=none;" vertex="1" parent="1">
          <mxGeometry x="140" y="330" width="60" height="60" as="geometry" />
        </mxCell>
        <mxCell id="4u6GkYTsB3H_MvTD6gbW-14" value="&lt;span style=&quot;font-size: 20px;&quot;&gt;SLC-P-1A&lt;/span&gt;" style="text;html=1;align=center;verticalAlign=middle;resizable=0;points=[];autosize=1;strokeColor=none;fillColor=none;fontColor=#000000;" vertex="1" parent="1">
          <mxGeometry x="115" y="290" width="110" height="40" as="geometry" />
        </mxCell>
        <mxCell id="4u6GkYTsB3H_MvTD6gbW-16" value="" style="endArrow=none;html=1;rounded=0;strokeColor=#000000;strokeWidth=10;" edge="1" parent="1">
          <mxGeometry width="50" height="50" relative="1" as="geometry">
            <mxPoint x="-90" y="359.58" as="sourcePoint" />
            <mxPoint x="140" y="359.58" as="targetPoint" />
          </mxGeometry>
        </mxCell>
        <mxCell id="4u6GkYTsB3H_MvTD6gbW-17" value="&lt;font style=&quot;font-size: 15px;&quot;&gt;4&quot;SLC(1)-2-1&lt;/font&gt;" style="text;html=1;align=center;verticalAlign=middle;resizable=0;points=[];autosize=1;strokeColor=none;fillColor=none;fontColor=#000000;" vertex="1" parent="1">
          <mxGeometry x="250" y="330" width="110" height="30" as="geometry" />
        </mxCell>
        <mxCell id="4u6GkYTsB3H_MvTD6gbW-18" value="&lt;font style=&quot;font-size: 15px;&quot;&gt;6&quot;SLC(1)-1&lt;/font&gt;" style="text;html=1;align=center;verticalAlign=middle;resizable=0;points=[];autosize=1;strokeColor=none;fillColor=none;fontColor=#000000;" vertex="1" parent="1">
          <mxGeometry x="-25" y="330" width="100" height="30" as="geometry" />
        </mxCell>
        <mxCell id="4u6GkYTsB3H_MvTD6gbW-19" value="" style="endArrow=none;html=1;rounded=0;strokeColor=#000000;strokeWidth=10;" edge="1" parent="1">
          <mxGeometry width="50" height="50" relative="1" as="geometry">
            <mxPoint x="-480" y="360" as="sourcePoint" />
            <mxPoint x="-190" y="359.31" as="targetPoint" />
          </mxGeometry>
        </mxCell>
        <mxCell id="4u6GkYTsB3H_MvTD6gbW-23" value="" style="rounded=0;whiteSpace=wrap;html=1;strokeColor=#000000;fillColor=none;" vertex="1" parent="1">
          <mxGeometry x="-550" y="60" width="140" height="150" as="geometry" />
        </mxCell>
        <mxCell id="4u6GkYTsB3H_MvTD6gbW-24" value="&lt;span style=&quot;font-size: 20px;&quot;&gt;SLC-TK-1A&lt;/span&gt;" style="text;html=1;align=center;verticalAlign=middle;resizable=0;points=[];autosize=1;strokeColor=none;fillColor=none;fontColor=#000000;" vertex="1" parent="1">
          <mxGeometry x="-545" y="110" width="130" height="40" as="geometry" />
        </mxCell>
        <mxCell id="4u6GkYTsB3H_MvTD6gbW-25" value="" style="endArrow=none;html=1;rounded=0;strokeColor=#000000;strokeWidth=10;" edge="1" parent="1">
          <mxGeometry width="50" height="50" relative="1" as="geometry">
            <mxPoint x="530" y="359.17" as="sourcePoint" />
            <mxPoint x="760" y="359.17" as="targetPoint" />
          </mxGeometry>
        </mxCell>
        <mxCell id="4u6GkYTsB3H_MvTD6gbW-26" value="" style="endArrow=none;html=1;rounded=0;strokeColor=#000000;strokeWidth=10;" edge="1" parent="1">
          <mxGeometry width="50" height="50" relative="1" as="geometry">
            <mxPoint x="760" as="sourcePoint" />
            <mxPoint x="760" y="360" as="targetPoint" />
          </mxGeometry>
        </mxCell>
        <mxCell id="4u6GkYTsB3H_MvTD6gbW-29" value="" style="verticalLabelPosition=bottom;align=center;html=1;verticalAlign=top;pointerEvents=1;dashed=0;shape=mxgraph.pid2valves.valve;valveType=check;strokeColor=#000000;fillColor=#000000;direction=north;" vertex="1" parent="1">
          <mxGeometry x="730" y="-100" width="60" height="100" as="geometry" />
        </mxCell>
        <mxCell id="4u6GkYTsB3H_MvTD6gbW-31" value="&lt;span style=&quot;font-size: 20px;&quot;&gt;SLC-V-1A&lt;/span&gt;" style="text;html=1;align=center;verticalAlign=middle;resizable=0;points=[];autosize=1;strokeColor=none;fillColor=none;fontColor=#000000;" vertex="1" parent="1">
          <mxGeometry x="490" y="290" width="110" height="40" as="geometry" />
        </mxCell>
        <mxCell id="4u6GkYTsB3H_MvTD6gbW-32" value="&lt;span style=&quot;font-size: 20px;&quot;&gt;SLC-V-2A&lt;/span&gt;" style="text;html=1;align=center;verticalAlign=middle;resizable=0;points=[];autosize=1;strokeColor=none;fillColor=none;fontColor=#000000;" vertex="1" parent="1">
          <mxGeometry x="600" y="-70" width="110" height="40" as="geometry" />
        </mxCell>
        <mxCell id="4u6GkYTsB3H_MvTD6gbW-33" value="" style="endArrow=none;html=1;rounded=0;strokeColor=#000000;strokeWidth=10;" edge="1" parent="1">
          <mxGeometry width="50" height="50" relative="1" as="geometry">
            <mxPoint x="759" y="-360" as="sourcePoint" />
            <mxPoint x="759.44" y="-100" as="targetPoint" />
          </mxGeometry>
        </mxCell>
        <mxCell id="4u6GkYTsB3H_MvTD6gbW-34" value="" style="verticalLabelPosition=bottom;align=center;html=1;verticalAlign=top;pointerEvents=1;dashed=0;shape=mxgraph.pid2valves.valve;valveType=gate;strokeColor=#000000;fillColor=#FFFFFF;direction=south;" vertex="1" parent="1">
          <mxGeometry x="730" y="-460" width="60" height="100" as="geometry" />
        </mxCell>
        <mxCell id="4u6GkYTsB3H_MvTD6gbW-35" value="&lt;span style=&quot;font-size: 20px;&quot;&gt;SLC-V-4A&lt;/span&gt;" style="text;html=1;align=center;verticalAlign=middle;resizable=0;points=[];autosize=1;strokeColor=none;fillColor=none;fontColor=#000000;" vertex="1" parent="1">
          <mxGeometry x="-195" y="290" width="110" height="40" as="geometry" />
        </mxCell>
        <mxCell id="4u6GkYTsB3H_MvTD6gbW-36" value="&lt;span style=&quot;font-size: 20px;&quot;&gt;SLC-V-3A&lt;/span&gt;" style="text;html=1;align=center;verticalAlign=middle;resizable=0;points=[];autosize=1;strokeColor=none;fillColor=none;fontColor=#000000;" vertex="1" parent="1">
          <mxGeometry x="610" y="-430" width="110" height="40" as="geometry" />
        </mxCell>
        <mxCell id="4u6GkYTsB3H_MvTD6gbW-37" value="" style="endArrow=none;html=1;rounded=0;strokeColor=#000000;strokeWidth=10;startArrow=block;startFill=1;" edge="1" parent="1">
          <mxGeometry width="50" height="50" relative="1" as="geometry">
            <mxPoint x="760" y="-640" as="sourcePoint" />
            <mxPoint x="759.8800000000001" y="-460" as="targetPoint" />
          </mxGeometry>
        </mxCell>
        <mxCell id="4u6GkYTsB3H_MvTD6gbW-38" value="&lt;span style=&quot;font-size: 20px;&quot;&gt;POWER LASER A&lt;/span&gt;&lt;div&gt;&lt;span style=&quot;font-size: 20px;&quot;&gt;REACTOR VESSEL&lt;/span&gt;&lt;/div&gt;&lt;div&gt;&lt;span style=&quot;font-size: 20px;&quot;&gt;SPRAY HEADER&lt;/span&gt;&lt;/div&gt;" style="text;html=1;align=center;verticalAlign=middle;resizable=0;points=[];autosize=1;strokeColor=none;fillColor=none;fontColor=#000000;" vertex="1" parent="1">
          <mxGeometry x="660" y="-730" width="200" height="90" as="geometry" />
        </mxCell>
        <mxCell id="4u6GkYTsB3H_MvTD6gbW-39" value="" style="endArrow=none;html=1;rounded=0;strokeColor=#000000;strokeWidth=3;" edge="1" parent="1">
          <mxGeometry width="50" height="50" relative="1" as="geometry">
            <mxPoint x="300" y="360" as="sourcePoint" />
            <mxPoint x="300" y="410" as="targetPoint" />
          </mxGeometry>
        </mxCell>
        <mxCell id="4u6GkYTsB3H_MvTD6gbW-40" value="" style="ellipse;whiteSpace=wrap;html=1;aspect=fixed;strokeColor=#000000;fillColor=#FFFFFF;" vertex="1" parent="1">
          <mxGeometry x="260" y="410" width="80" height="80" as="geometry" />
        </mxCell>
        <mxCell id="4u6GkYTsB3H_MvTD6gbW-41" value="" style="endArrow=none;html=1;rounded=0;entryX=0;entryY=0.5;entryDx=0;entryDy=0;exitX=1;exitY=0.5;exitDx=0;exitDy=0;strokeColor=#000000;" edge="1" parent="1">
          <mxGeometry width="50" height="50" relative="1" as="geometry">
            <mxPoint x="340" y="450" as="sourcePoint" />
            <mxPoint x="260" y="450" as="targetPoint" />
          </mxGeometry>
        </mxCell>
        <mxCell id="4u6GkYTsB3H_MvTD6gbW-42" value="&lt;font style=&quot;font-size: 20px;&quot;&gt;PT&lt;/font&gt;" style="text;html=1;align=center;verticalAlign=middle;resizable=0;points=[];autosize=1;strokeColor=none;fillColor=none;fontColor=#000000;" vertex="1" parent="1">
          <mxGeometry x="275" y="410" width="50" height="40" as="geometry" />
        </mxCell>
        <mxCell id="4u6GkYTsB3H_MvTD6gbW-43" value="&lt;font style=&quot;font-size: 20px;&quot;&gt;1A&lt;/font&gt;" style="text;html=1;align=center;verticalAlign=middle;resizable=0;points=[];autosize=1;strokeColor=none;fillColor=none;fontColor=#000000;" vertex="1" parent="1">
          <mxGeometry x="275" y="450" width="50" height="40" as="geometry" />
        </mxCell>
        <mxCell id="4u6GkYTsB3H_MvTD6gbW-44" value="" style="endArrow=none;dashed=1;html=1;strokeWidth=2;rounded=0;strokeColor=#000000;" edge="1" parent="1">
          <mxGeometry width="50" height="50" relative="1" as="geometry">
            <mxPoint x="300" y="560" as="sourcePoint" />
            <mxPoint x="299.74" y="490" as="targetPoint" />
          </mxGeometry>
        </mxCell>
        <mxCell id="4u6GkYTsB3H_MvTD6gbW-53" value="" style="ellipse;whiteSpace=wrap;html=1;aspect=fixed;strokeColor=#000000;fillColor=#FFFFFF;" vertex="1" parent="1">
          <mxGeometry x="260" y="560" width="80" height="80" as="geometry" />
        </mxCell>
        <mxCell id="4u6GkYTsB3H_MvTD6gbW-54" value="" style="endArrow=none;html=1;rounded=0;entryX=0;entryY=0.5;entryDx=0;entryDy=0;exitX=1;exitY=0.5;exitDx=0;exitDy=0;strokeColor=#000000;" edge="1" parent="1">
          <mxGeometry width="50" height="50" relative="1" as="geometry">
            <mxPoint x="340" y="600" as="sourcePoint" />
            <mxPoint x="260" y="600" as="targetPoint" />
          </mxGeometry>
        </mxCell>
        <mxCell id="4u6GkYTsB3H_MvTD6gbW-55" value="&lt;font style=&quot;font-size: 20px;&quot;&gt;PI&lt;/font&gt;" style="text;html=1;align=center;verticalAlign=middle;resizable=0;points=[];autosize=1;strokeColor=none;fillColor=none;fontColor=#000000;" vertex="1" parent="1">
          <mxGeometry x="280" y="560" width="40" height="40" as="geometry" />
        </mxCell>
        <mxCell id="4u6GkYTsB3H_MvTD6gbW-56" value="&lt;font style=&quot;font-size: 20px;&quot;&gt;1A&lt;/font&gt;" style="text;html=1;align=center;verticalAlign=middle;resizable=0;points=[];autosize=1;strokeColor=none;fillColor=none;fontColor=#000000;" vertex="1" parent="1">
          <mxGeometry x="275" y="600" width="50" height="40" as="geometry" />
        </mxCell>
        <mxCell id="4u6GkYTsB3H_MvTD6gbW-57" value="" style="ellipse;whiteSpace=wrap;html=1;aspect=fixed;strokeColor=#000000;fillColor=#FFFFFF;" vertex="1" parent="1">
          <mxGeometry x="640" y="230" width="80" height="80" as="geometry" />
        </mxCell>
        <mxCell id="4u6GkYTsB3H_MvTD6gbW-58" value="" style="endArrow=none;html=1;rounded=0;entryX=0;entryY=0.5;entryDx=0;entryDy=0;exitX=1;exitY=0.5;exitDx=0;exitDy=0;strokeColor=#000000;" edge="1" parent="1">
          <mxGeometry width="50" height="50" relative="1" as="geometry">
            <mxPoint x="720" y="270" as="sourcePoint" />
            <mxPoint x="640" y="270" as="targetPoint" />
          </mxGeometry>
        </mxCell>
        <mxCell id="4u6GkYTsB3H_MvTD6gbW-59" value="&lt;font style=&quot;font-size: 20px;&quot;&gt;PS&lt;/font&gt;" style="text;html=1;align=center;verticalAlign=middle;resizable=0;points=[];autosize=1;strokeColor=none;fillColor=none;fontColor=#000000;" vertex="1" parent="1">
          <mxGeometry x="655" y="230" width="50" height="40" as="geometry" />
        </mxCell>
        <mxCell id="4u6GkYTsB3H_MvTD6gbW-60" value="&lt;font style=&quot;font-size: 20px;&quot;&gt;1A&lt;/font&gt;" style="text;html=1;align=center;verticalAlign=middle;resizable=0;points=[];autosize=1;strokeColor=none;fillColor=none;fontColor=#000000;" vertex="1" parent="1">
          <mxGeometry x="655" y="270" width="50" height="40" as="geometry" />
        </mxCell>
        <mxCell id="4u6GkYTsB3H_MvTD6gbW-62" value="" style="endArrow=none;html=1;rounded=0;strokeColor=#000000;strokeWidth=3;" edge="1" parent="1">
          <mxGeometry width="50" height="50" relative="1" as="geometry">
            <mxPoint x="679.74" y="310" as="sourcePoint" />
            <mxPoint x="679.74" y="360" as="targetPoint" />
          </mxGeometry>
        </mxCell>
        <mxCell id="4u6GkYTsB3H_MvTD6gbW-63" value="" style="endArrow=none;html=1;rounded=0;strokeColor=#000000;strokeWidth=3;" edge="1" parent="1">
          <mxGeometry width="50" height="50" relative="1" as="geometry">
            <mxPoint x="679.74" y="180" as="sourcePoint" />
            <mxPoint x="679.74" y="230" as="targetPoint" />
          </mxGeometry>
        </mxCell>
        <mxCell id="4u6GkYTsB3H_MvTD6gbW-64" value="" style="whiteSpace=wrap;html=1;aspect=fixed;fillColor=#FFFFFF;strokeColor=#000000;rotation=-45;" vertex="1" parent="1">
          <mxGeometry x="650" y="120" width="60" height="60" as="geometry" />
        </mxCell>
        <mxCell id="4u6GkYTsB3H_MvTD6gbW-66" value="&lt;font style=&quot;font-size: 20px;&quot;&gt;AL&lt;/font&gt;" style="text;html=1;align=center;verticalAlign=middle;resizable=0;points=[];autosize=1;strokeColor=none;fillColor=none;fontColor=#000000;" vertex="1" parent="1">
          <mxGeometry x="655" y="130" width="50" height="40" as="geometry" />
        </mxCell>
        <mxCell id="4u6GkYTsB3H_MvTD6gbW-69" value="&lt;span style=&quot;font-size: 15px;&quot;&gt;CR&lt;/span&gt;" style="text;html=1;align=center;verticalAlign=middle;resizable=0;points=[];autosize=1;strokeColor=none;fillColor=none;fontColor=#000000;" vertex="1" parent="1">
          <mxGeometry x="610" y="100" width="50" height="30" as="geometry" />
        </mxCell>
        <mxCell id="4u6GkYTsB3H_MvTD6gbW-70" value="" style="endArrow=none;html=1;rounded=0;strokeColor=#000000;strokeWidth=10;entryX=0.5;entryY=1;entryDx=0;entryDy=0;" edge="1" parent="1" target="4u6GkYTsB3H_MvTD6gbW-23">
          <mxGeometry width="50" height="50" relative="1" as="geometry">
            <mxPoint x="-480" y="360" as="sourcePoint" />
            <mxPoint x="-330" y="358.67" as="targetPoint" />
          </mxGeometry>
        </mxCell>
      </root>
    </mxGraphModel>
  </diagram>
</mxfile>
